<svg xmlns="http://www.w3.org/2000/svg" viewBox="0 0 305.32 31.2"><defs><style>.cls-1{fill:#000000;}.cls-2{fill:#00a3e0;}</style></defs><g id="Warstwa_2" data-name="Warstwa 2"><g id="Warstwa_1-2" data-name="Warstwa 1"><path class="cls-1" d="M260,19.52a4.76,4.76,0,0,1,9.51-.11,4.76,4.76,0,1,1-9.51.11"/><path class="cls-1" d="M285.73,15a3,3,0,0,0-2.89-3.25c-1.82,0-2.53,1.46-2.53,3s.79,3.2,2.6,3.2A2.74,2.74,0,0,0,285.73,15M284.3,5.52c5.09,0,7.55,4.42,7.55,9s-2.42,9.26-7.69,9.26a6.13,6.13,0,0,1-3.92-1.46v8.9h-6.48V5.88h5.7l.39,1.17a8,8,0,0,1,4.45-1.53"/><path class="cls-1" d="M301.69,0V15.92c0,1.14,1,1.39,1.92,1.39a8.29,8.29,0,0,0,1.71-.21v6.44a26.32,26.32,0,0,1-3.7.32c-4.35,0-6.42-2.49-6.42-7.73V0Z"/><path class="cls-2" d="M82.51,15.63a3.9,3.9,0,0,1,3.93-4.05,2.53,2.53,0,0,1,2.81,2.61,3.91,3.91,0,0,1-4,4,2.5,2.5,0,0,1-2.79-2.6"/><path class="cls-2" d="M146.36,15.63a3.9,3.9,0,0,1,3.93-4.05,2.53,2.53,0,0,1,2.81,2.61,3.91,3.91,0,0,1-3.95,4,2.5,2.5,0,0,1-2.79-2.6"/><path class="cls-2" d="M190.15,15.63a3.9,3.9,0,0,1,3.93-4.05,2.52,2.52,0,0,1,2.81,2.61,3.91,3.91,0,0,1-3.94,4,2.51,2.51,0,0,1-2.8-2.6"/><polygon class="cls-1" points="243.96 5.88 248.8 16.56 253.65 5.88 260.48 5.88 247.88 31.2 241.64 31.2 245.7 23.04 237.12 5.88 243.96 5.88"/><path class="cls-1" d="M10,19c1.07,0,1.81-.25,1.81-.89,0-.25-.32-.5-1.14-.68C7.84,16.78.39,16.6.39,11.26c0-4.42,4-5.85,8.23-5.85A22.32,22.32,0,0,1,17,7.05l-1.88,4.88a20.62,20.62,0,0,0-6.84-1.6c-1,0-1.64.21-1.64.75,0,1.67,11.08.5,11.08,6.55,0,5-4.31,6.7-8.84,6.7A18.7,18.7,0,0,1,0,22.19l1.85-5.41C2.67,17.49,7.37,19,10,19"/><path class="cls-1" d="M29.3,18.09c1.92,0,2.74-1.67,2.74-3.34s-.74-3.14-2.67-3.14-3,1.43-3,3.49a2.78,2.78,0,0,0,3,3m3.28-11,.18-1.17h5.66V23.69H33.11l-.53-1A8.86,8.86,0,0,1,28,24.08c-5.37,0-8-4.49-8-9,0-4.74,2.85-9.54,8.44-9.54a5.3,5.3,0,0,1,4.17,1.56"/><path class="cls-1" d="M54.61,5.52A6.35,6.35,0,0,1,59.85,8a9.36,9.36,0,0,1,6.41-2.46c4.59,0,6.66,2.46,6.66,6.73V23.69H66.37V13a1.49,1.49,0,0,0-1.61-1.57,4,4,0,0,0-3.49,3.2v9H54.76V13a1.51,1.51,0,0,0-1.64-1.57,3.81,3.81,0,0,0-3.46,3.06v9.16H43.18V5.88h6.16L49.7,7a8.76,8.76,0,0,1,4.91-1.46"/><path class="cls-1" d="M89,14.14a2.36,2.36,0,0,0-2.56-2.46,3.73,3.73,0,0,0-3.67,3.88,2.36,2.36,0,0,0,2.56,2.5A3.73,3.73,0,0,0,89,14.14M76.26,17A11.12,11.12,0,0,1,87.48,5.41c5,0,8,2.89,8,7.45A11.16,11.16,0,0,1,84.23,24.33c-5,0-8-2.85-8-7.38"/><path class="cls-1" d="M107,24.29c-6.19,0-9.33-4.88-9.33-9.69a9.06,9.06,0,0,1,9.12-9.36c4,0,8,2.24,9.15,6.62l-5.62,2.28a3.33,3.33,0,0,0-3.1-2.6,3.16,3.16,0,0,0-3.14,3.24,3,3,0,0,0,3.07,3.28,4.67,4.67,0,0,0,3.56-1.82l5,2a9.13,9.13,0,0,1-8.66,6"/><path class="cls-1" d="M130.34,5.52c4.06,0,6.69,2.07,6.69,6.34V23.69h-6.55V13.11a1.6,1.6,0,0,0-1.75-1.64A3.15,3.15,0,0,0,125.39,14v9.66H118.9V0h6.52V7a8.81,8.81,0,0,1,4.92-1.46"/><path class="cls-1" d="M153.05,14.14a2.37,2.37,0,0,0-2.57-2.46,3.74,3.74,0,0,0-3.67,3.88,2.36,2.36,0,0,0,2.57,2.5,3.73,3.73,0,0,0,3.67-3.92M140.33,17A11.12,11.12,0,0,1,151.55,5.41c5,0,8,2.89,8,7.45a11.16,11.16,0,0,1-11.26,11.47c-4.95,0-8-2.85-8-7.38"/><path class="cls-1" d="M171.09,18.09c1.93,0,2.74-1.67,2.74-3.35s-.74-3.13-2.67-3.13-3,1.43-3,3.49a2.77,2.77,0,0,0,3,3m3.1-11.43V0h6V23.68H174.9l-.53-1a8.83,8.83,0,0,1-4.59,1.43c-5.38,0-8-4.49-8-9,0-4.74,2.85-9.55,8.44-9.55a7.64,7.64,0,0,1,4,1.18"/><path class="cls-1" d="M196.54,14.14A2.36,2.36,0,0,0,194,11.68a3.73,3.73,0,0,0-3.67,3.88,2.35,2.35,0,0,0,2.56,2.5,3.73,3.73,0,0,0,3.67-3.92M183.83,17A11.12,11.12,0,0,1,195.05,5.41c5,0,8,2.89,8,7.45A11.16,11.16,0,0,1,191.8,24.33c-5,0-8-2.85-8-7.38"/><path class="cls-1" d="M216.22,23.69h-5.84L203.76,5.88h6.51l3,9.76C214.44,12.43,216,8.9,217,5.88h5.59c1.07,3,2.6,6.55,3.78,9.76l3-9.76h6.52l-6.63,17.81h-5.84l-3.6-8.48h0Z"/></g></g></svg>